<svg width="48" height="60" viewBox="0 0 48 60" fill="none" xmlns="http://www.w3.org/2000/svg">
<path fill-rule="evenodd" clip-rule="evenodd" d="M21.3968 8.82733H7.40459C6.94498 8.82733 6.48988 8.91785 6.06527 9.09373C5.64065 9.26961 5.25484 9.52741 4.92985 9.8524C4.60486 10.1774 4.34707 10.5632 4.17119 10.9878C3.99531 11.4124 3.90478 11.8675 3.90479 12.3271V40.5766C3.90479 41.5048 4.27352 42.3949 4.92986 43.0513C5.5862 43.7076 6.47638 44.0763 7.40459 44.0764H35.1681C36.0963 44.0763 36.9865 43.7076 37.6428 43.0513C38.2991 42.3949 38.6679 41.5048 38.6679 40.5766V27.6763C38.6684 27.479 38.63 27.2835 38.5548 27.1011C38.4797 26.9187 38.3693 26.7529 38.2299 26.6132C38.0906 26.4735 37.9251 26.3626 37.7428 26.287C37.5606 26.2114 37.3653 26.1725 37.168 26.1725C36.9707 26.1725 36.7753 26.2114 36.5931 26.287C36.4108 26.3626 36.2453 26.4735 36.106 26.6132C35.9667 26.7529 35.8563 26.9187 35.7811 27.1011C35.706 27.2835 35.6675 27.479 35.668 27.6763V40.5766C35.668 40.7092 35.6153 40.8363 35.5216 40.9301C35.4278 41.0238 35.3006 41.0765 35.168 41.0766H7.40459C7.27199 41.0765 7.14484 41.0238 7.05108 40.9301C6.95732 40.8363 6.90463 40.7092 6.90459 40.5766V12.3271C6.90463 12.1945 6.95732 12.0674 7.05108 11.9736C7.14484 11.8799 7.27199 11.8272 7.40459 11.8271H21.3968C21.5941 11.8276 21.7896 11.7892 21.972 11.7141C22.1544 11.6389 22.3202 11.5285 22.4599 11.3892C22.5996 11.2499 22.7104 11.0843 22.786 10.9021C22.8617 10.7199 22.9006 10.5245 22.9006 10.3272C22.9006 10.1299 22.8617 9.93456 22.786 9.75233C22.7104 9.5701 22.5996 9.40458 22.4599 9.26525C22.3202 9.12592 22.1544 9.01552 21.972 8.94037C21.7896 8.86522 21.5941 8.8268 21.3968 8.82731V8.82733ZM43.0886 15.174C43.7335 14.5193 44.0951 13.6371 44.0951 12.7181C44.0951 11.7991 43.7335 10.917 43.0886 10.2623C41.6317 8.78233 39.3478 6.46346 37.8749 4.96754C37.5492 4.63689 37.1609 4.37432 36.7328 4.1951C36.3047 4.01588 35.8452 3.92358 35.381 3.92358C34.9169 3.92358 34.4574 4.01588 34.0293 4.1951C33.6011 4.37432 33.2129 4.63689 32.8872 4.96754C28.3074 9.61828 14.2592 23.8815 14.2592 23.8815C14.0129 24.1311 13.8618 24.4591 13.8322 24.8085L13.0772 33.815C13.059 34.0342 13.0892 34.2546 13.1656 34.4608C13.2421 34.667 13.3629 34.8539 13.5195 35.0083C13.6761 35.1626 13.8648 35.2807 14.0721 35.354C14.2794 35.4274 14.5003 35.4544 14.7191 35.433L23.4956 34.571C23.8449 34.5366 24.1712 34.3809 24.4176 34.131L43.0886 15.174ZM40.9517 13.0691L22.6617 31.6381L16.2171 32.2711L16.7771 25.6004L35.0251 7.07345C35.0714 7.02597 35.1268 6.98824 35.1879 6.96248C35.2491 6.93672 35.3147 6.92345 35.3811 6.92345C35.4474 6.92345 35.5131 6.93672 35.5742 6.96248C35.6353 6.98824 35.6907 7.02597 35.737 7.07345L40.9518 12.3672C41.044 12.4607 41.0957 12.5868 41.0957 12.7181C41.0957 12.8495 41.044 12.9756 40.9517 13.0691V13.0691Z" fill="white"/>
</svg>
